<svg width="1920" height="1080" viewBox="0 0 1920 1080" xmlns="http://www.w3.org/2000/svg"><rect width="1920" height="1080" fill="#0097f8"/><path d="M 0,1080 C 0,1080 0,180 0,180 C 101.92051282051281,199.01282051282053 203.84102564102562,218.02564102564105 279,234 C 354.1589743589744,249.97435897435895 402.55641025641023,262.9102564102564 450,240 C 497.44358974358977,217.0897435897436 543.9333333333334,158.33333333333334 754,158 C 964.0666666666666,157.66666666666666 1337.7102564102563,215.75641025641028 1459,233 C 1580.2897435897437,250.24358974358972 1449.2256410256412,226.64102564102564 1484,211 C 1518.7743589743588,195.35897435897436 1719.3871794871793,187.67948717948718 1920,180 C 1920,180 1920,1080 1920,1080 Z" fill="#ffffff" opacity="0.09999999999999999"/><path d="M 0,1080 C 0,1080 0,360 0,360 C 272.90000000000003,349.2974358974359 545.8000000000001,338.5948717948718 569,324 C 592.1999999999999,309.4051282051282 365.7,290.9179487179487 343,306 C 320.3,321.0820512820513 501.4000000000001,369.7333333333333 660,390 C 818.5999999999999,410.2666666666667 954.7,402.14871794871794 1132,382 C 1309.3,361.85128205128206 1527.8,329.6717948717949 1666,324 C 1804.2,318.3282051282051 1862.1,339.16410256410256 1920,360 C 1920,360 1920,1080 1920,1080 Z" fill="#ffffff" opacity="0.19999999999999998"/><path d="M 0,1080 C 0,1080 0,540 0,540 C -88.18974358974359,533.0179487179487 -176.37948717948717,526.0358974358975 49,545 C 274.37948717948717,563.9641025641025 813.3282051282051,608.874358974359 920,598 C 1026.6717948717949,587.125641025641 701.0666666666667,520.4666666666667 692,499 C 682.9333333333333,477.5333333333333 990.4051282051282,501.25897435897434 1245,501 C 1499.5948717948718,500.74102564102566 1701.3128205128205,476.49743589743593 1805,479 C 1908.6871794871795,481.50256410256407 1914.3435897435897,510.75128205128203 1920,540 C 1920,540 1920,1080 1920,1080 Z" fill="#ffffff" opacity="0.3"/><path d="M 0,1080 C 0,1080 0,720 0,720 C 172.5897435897436,718.0769230769231 345.1794871794872,716.1538461538461 444,708 C 542.8205128205128,699.8461538461539 567.871794871795,685.4615384615385 586,695 C 604.128205128205,704.5384615384615 615.3333333333331,738 704,732 C 792.6666666666669,726 958.7948717948718,680.5384615384615 1124,678 C 1289.2051282051282,675.4615384615385 1453.4871794871794,715.8461538461538 1586,730 C 1718.5128205128206,744.1538461538462 1819.2564102564102,732.0769230769231 1920,720 C 1920,720 1920,1080 1920,1080 Z" fill="#ffffff" opacity="0.39999999999999997"/><path d="M 0,1080 C 0,1080 0,900 0,900 C 83.82307692307691,864.4358974358975 167.64615384615382,828.8717948717949 215,848 C 262.3538461538462,867.1282051282051 273.2384615384616,940.9487179487179 454,950 C 634.7615384615384,959.0512820512821 985.3999999999999,903.3333333333334 1054,880 C 1122.6000000000001,856.6666666666666 909.1615384615386,865.7179487179488 1025,874 C 1140.8384615384614,882.2820512820512 1585.9538461538461,889.7948717948717 1790,894 C 1994.0461538461539,898.2051282051283 1957.023076923077,899.1025641025642 1920,900 C 1920,900 1920,1080 1920,1080 Z" fill="#ffffff" opacity="0.49999999999999994"/></svg>